<svg xmlns="http://www.w3.org/2000/svg" xmlns:xlink="http://www.w3.org/1999/xlink" width="500" zoomAndPan="magnify" viewBox="0 0 375 374.999991" height="500" preserveAspectRatio="xMidYMid meet" version="1.0"><defs><clipPath id="11af2d7d9e"><path d="M 68 52 L 207 52 L 207 214.097656 L 68 214.097656 Z M 68 52 " clip-rule="nonzero"/></clipPath><clipPath id="195c3ee9b9"><path d="M 38 19 L 94 19 L 94 129 L 38 129 Z M 38 19 " clip-rule="nonzero"/></clipPath><clipPath id="c29b0555a6"><path d="M 39.957031 17.40625 L 123.875 59.203125 L 83.75 139.765625 L -0.167969 97.96875 Z M 39.957031 17.40625 " clip-rule="nonzero"/></clipPath><clipPath id="1ee0b8b299"><path d="M 39.957031 17.40625 L 123.875 59.203125 L 83.75 139.765625 L -0.167969 97.96875 Z M 39.957031 17.40625 " clip-rule="nonzero"/></clipPath><clipPath id="7718a120c0"><path d="M 114 266 L 196.238281 266 L 196.238281 314 L 114 314 Z M 114 266 " clip-rule="nonzero"/></clipPath><clipPath id="4db710e679"><path d="M 168 122.402344 L 263 122.402344 L 263 266 L 168 266 Z M 168 122.402344 " clip-rule="nonzero"/></clipPath><clipPath id="0c9b07b8aa"><path d="M 269 122.402344 L 338 122.402344 L 338 313 L 269 313 Z M 269 122.402344 " clip-rule="nonzero"/></clipPath><clipPath id="30d88fe593"><path d="M 168 198 L 275 198 L 275 337.652344 L 168 337.652344 Z M 168 198 " clip-rule="nonzero"/></clipPath></defs><g clip-path="url(#11af2d7d9e)"><path fill="#006633" d="M 102.699219 213.957031 C 67.207031 198.4375 60.566406 169.636719 78.449219 136.148438 C 96.875 94.789062 133.507812 61.085938 179.214844 54.496094 C 194.226562 52.933594 220.832031 46.863281 196.195312 67.402344 C 184.183594 79.59375 177.484375 94.855469 167.585938 108.121094 C 157.089844 122.835938 141.335938 134.113281 123.316406 137.039062 C 111.46875 138.726562 88.46875 142.0625 99.523438 121.808594 C 106.714844 105.144531 122.839844 89.1875 134.847656 75.851562 C 100.203125 100.53125 69.6875 157.667969 91.328125 198.699219 C 94.578125 204.519531 98.609375 208.542969 103.414062 213.269531 C 104.167969 214.097656 104.195312 214.4375 103.308594 214.171875 Z M 133.25 77.667969 Z M 133.25 77.667969 " fill-opacity="1" fill-rule="nonzero"/></g><g clip-path="url(#195c3ee9b9)"><g clip-path="url(#c29b0555a6)"><g clip-path="url(#1ee0b8b299)"><path fill="#3c7d38" d="M 78.488281 128.128906 C 50.03125 122.519531 46.734375 85.566406 43.847656 62.441406 C 42.496094 49.832031 40.113281 37.269531 38.644531 24.703125 C 38.394531 20.546875 40.742188 18.339844 44.652344 19.777344 C 74.078125 34.558594 97.625 64.585938 92.542969 97.003906 C 87.773438 132.183594 81.460938 93.34375 77.523438 80.871094 C 76.882812 78.585938 76.179688 75.996094 75.863281 75.324219 C 75.679688 74.921875 75.621094 75.117188 75.6875 75.878906 C 77.570312 89.578125 80.371094 103.738281 82.207031 117.542969 C 82.507812 120.988281 83.160156 126.679688 79.28125 128.003906 L 78.492188 128.132812 Z M 78.488281 128.128906 " fill-opacity="1" fill-rule="nonzero"/></g></g></g><g clip-path="url(#7718a120c0)"><path fill="#3c7d38" d="M 130.441406 282.324219 C 136.046875 294.03125 161.589844 284.304688 166.9375 290.980469 C 155.773438 290.679688 138.507812 294.078125 130.246094 291.628906 C 115.789062 287.339844 119.382812 277.792969 123.25 266.25 C 109.988281 274.242188 109.5625 299.09375 132.828125 308.671875 C 151.167969 316.207031 156.5 303.671875 196.230469 313.550781 C 194.691406 274.195312 143.523438 261.992188 130.441406 282.324219 Z M 130.441406 282.324219 " fill-opacity="1" fill-rule="evenodd"/></g><path fill="#006633" d="M 120.078125 308.082031 C 116.074219 303.125 112.464844 301.917969 109.308594 291.660156 C 94.199219 242.683594 183.632812 260.179688 183.328125 186.199219 C 172.300781 200.234375 174.433594 213.785156 137.902344 231.867188 C 130.214844 235.675781 117.570312 243.605469 110.5 226.808594 C 99.472656 200.582031 132.359375 203 147.738281 203.347656 C 146.089844 212.636719 140.667969 216.234375 137.421875 221.972656 C 148.886719 218.742188 171.925781 195.582031 173.78125 183.105469 L 121.015625 183.011719 C 100.605469 183.011719 86.902344 191.019531 81.859375 207.363281 C 78.957031 216.777344 80.453125 225.007812 84.820312 232.746094 C 89.457031 240.960938 92.855469 241.582031 102.132812 246.386719 C 100.773438 249.527344 78.261719 260.871094 85.605469 284.105469 C 89.546875 296.601562 103.160156 308.429688 120.078125 308.082031 Z M 120.078125 308.082031 " fill-opacity="1" fill-rule="evenodd"/><g clip-path="url(#4db710e679)"><path fill="#006633" d="M 169.480469 263.484375 C 173.890625 252.941406 181.539062 244.730469 192.21875 239.085938 C 197.226562 236.4375 203.3125 234.175781 209.757812 231.785156 C 209.832031 231.757812 209.902344 231.734375 209.972656 231.707031 L 209.972656 191.683594 L 233.027344 221.949219 C 243.675781 216.375 253.914062 208.75 261.324219 197.003906 L 262.550781 195.058594 L 207.257812 122.402344 L 168.671875 122.402344 L 168.671875 265.539062 C 168.929688 264.847656 169.195312 264.160156 169.480469 263.484375 Z M 169.480469 263.484375 " fill-opacity="1" fill-rule="nonzero"/></g><g clip-path="url(#0c9b07b8aa)"><path fill="#006633" d="M 296.375 122.402344 L 296.375 239.507812 L 271.222656 206.457031 C 273.460938 211.945312 275.925781 219.496094 277.105469 228.230469 C 278.527344 238.746094 277.785156 248.78125 274.890625 258.066406 C 273.59375 262.238281 271.859375 266.25 269.703125 270.09375 L 302.082031 312.59375 L 337.675781 312.59375 L 337.675781 122.402344 Z M 296.375 122.402344 " fill-opacity="1" fill-rule="nonzero"/></g><g clip-path="url(#30d88fe593)"><path fill="#3c7d38" d="M 175.902344 325.273438 C 175.902344 325.273438 149.769531 265.09375 193.6875 241.867188 C 211.921875 232.226562 245.695312 227.6875 263.984375 198.679688 C 263.984375 198.679688 294.636719 249.292969 252.066406 286.621094 C 252.066406 286.621094 241.378906 296.84375 211.832031 307.878906 C 206.980469 309.6875 187.070312 316.089844 183.625 337.5 C 183.625 337.5 171.320312 272.621094 246.167969 235.472656 C 246.167969 235.46875 180.082031 252.382812 175.902344 325.273438 Z M 175.902344 325.273438 " fill-opacity="1" fill-rule="nonzero"/></g></svg>